<svg xmlns="http://www.w3.org/2000/svg" viewBox="0 0 120 120" fill="none">
  <defs>
    <radialGradient id="glow" cx="50%" cy="35%" r="60%">
      <stop offset="0%" stop-color="#f5f0ff" stop-opacity="0.95"/>
      <stop offset="100%" stop-color="#c4b0e8" stop-opacity="0.9"/>
    </radialGradient>
  </defs>
  <path fill="url(#glow)" stroke="#7b5ea7" stroke-width="3"
    d="M60 18c-22 0-40 18-40 40v6c0 8 6 14 14 14h4l8 16 8-16h6c8 0 14-6 14-14v-6c0-22-18-40-40-40z"/>
  <ellipse cx="44" cy="52" rx="8" ry="10" fill="#0d0d1a"/>
  <ellipse cx="76" cy="52" rx="8" ry="10" fill="#0d0d1a"/>
  <circle cx="46" cy="50" r="3" fill="#7ef0c8"/>
  <circle cx="78" cy="50" r="3" fill="#7ef0c8"/>
  <ellipse cx="38" cy="68" rx="6" ry="3" fill="#f472b6" opacity="0.55"/>
  <ellipse cx="82" cy="68" rx="6" ry="3" fill="#f472b6" opacity="0.55"/>
  <path stroke="#7ef0c8" stroke-width="4" stroke-linecap="round"
    d="M52 72c6 6 14 6 20 0"/>
  <circle cx="92" cy="28" r="10" fill="#7ef0c8" opacity="0.35"/>
  <circle cx="96" cy="24" r="4" fill="#7ef0c8"/>
</svg>
